<?xml version="1.0" encoding="UTF-8"?>
<svg width="1200pt" height="1200pt" version="1.1" viewBox="0 0 1200 1200" xmlns="http://www.w3.org/2000/svg">
 <g>
  <path d="m1043 373.68-36-31.441-400.08 463.44-7.8008 9-24.84 58.32c-0.67187 1.9492-0.089843 4.1094 1.4688 5.457 1.5586 1.3477 3.7812 1.6094 5.6094 0.66406l54.121-33 4.4414-5.1602c1.0469-0.82813 2.0117-1.75 2.8789-2.7617l257.16-298.2v480h-720v-864h720v293.88l36-41.879v-310.56c0-9.9297-3.9453-19.453-10.965-26.477-7.0234-7.0195-16.547-10.965-26.477-10.965h-717.12c-9.9297 0-19.453 3.9453-26.477 10.965-7.0195 7.0234-10.965 16.547-10.965 26.477v1005.1c0 9.9297 3.9453 19.453 10.965 26.477 7.0234 7.0195 16.547 10.965 26.477 10.965h717.12c9.9297 0 19.453-3.9453 26.477-10.965 7.0195-7.0234 10.965-16.547 10.965-26.477v-604.92zm-503.04 718.32c-6.3633 0-12.469-2.5273-16.969-7.0312-4.5039-4.5-7.0312-10.605-7.0312-16.969s2.5273-12.469 7.0312-16.969c4.5-4.5039 10.605-7.0312 16.969-7.0312s12.469 2.5273 16.969 7.0312c4.5039 4.5 7.0312 10.605 7.0312 16.969s-2.5273 12.469-7.0312 16.969c-4.5 4.5039-10.605 7.0312-16.969 7.0312z"/>
  <path d="m1106.5 300c4.1523-4.8203 6.2188-11.098 5.7461-17.441-0.47266-6.3477-3.4453-12.246-8.2656-16.398s-11.098-6.2188-17.441-5.7461c-6.3477 0.47266-12.246 3.4453-16.398 8.2656l-47.762 55.32 36 31.32z"/>
 </g>
</svg>
